<mxfile host="app.diagrams.net" modified="2024-04-26T13:46:03.671Z" agent="Mozilla/5.0 (X11; Linux x86_64) AppleWebKit/537.36 (KHTML, like Gecko) Chrome/124.0.0.0 Safari/537.36" etag="ltLlLodfezPX3-8SBIoR" version="24.3.0" type="github">
  <diagram name="Page-1" id="Xcsd1OOXTh2RoYTcbx6N">
    <mxGraphModel dx="1452" dy="879" grid="1" gridSize="10" guides="1" tooltips="1" connect="1" arrows="1" fold="1" page="1" pageScale="1" pageWidth="827" pageHeight="1169" math="0" shadow="0">
      <root>
        <mxCell id="0" />
        <mxCell id="1" parent="0" />
        <mxCell id="WcwEFJO0mhPjMKhJfkhV-4" value="" style="rounded=0;orthogonalLoop=1;jettySize=auto;html=1;" edge="1" parent="1" source="WcwEFJO0mhPjMKhJfkhV-1" target="WcwEFJO0mhPjMKhJfkhV-3">
          <mxGeometry relative="1" as="geometry" />
        </mxCell>
        <mxCell id="WcwEFJO0mhPjMKhJfkhV-10" value="" style="rounded=0;orthogonalLoop=1;jettySize=auto;html=1;" edge="1" parent="1" source="WcwEFJO0mhPjMKhJfkhV-1" target="WcwEFJO0mhPjMKhJfkhV-9">
          <mxGeometry relative="1" as="geometry" />
        </mxCell>
        <mxCell id="WcwEFJO0mhPjMKhJfkhV-1" value="Machine Learning Libraries" style="rounded=0;whiteSpace=wrap;html=1;" vertex="1" parent="1">
          <mxGeometry x="240" y="360" width="120" height="60" as="geometry" />
        </mxCell>
        <mxCell id="WcwEFJO0mhPjMKhJfkhV-5" value="Header" style="swimlane;whiteSpace=wrap;html=1;" vertex="1" parent="1">
          <mxGeometry x="440" y="100" width="370" height="140" as="geometry" />
        </mxCell>
        <mxCell id="WcwEFJO0mhPjMKhJfkhV-3" value="Imports" style="rounded=0;whiteSpace=wrap;html=1;" vertex="1" parent="WcwEFJO0mhPjMKhJfkhV-5">
          <mxGeometry x="30" y="50" width="120" height="60" as="geometry" />
        </mxCell>
        <mxCell id="WcwEFJO0mhPjMKhJfkhV-6" value="Body&lt;span style=&quot;color: rgba(0, 0, 0, 0); font-family: monospace; font-size: 0px; font-weight: 400; text-align: start; text-wrap: nowrap;&quot;&gt;%3CmxGraphModel%3E%3Croot%3E%3CmxCell%20id%3D%220%22%2F%3E%3CmxCell%20id%3D%221%22%20parent%3D%220%22%2F%3E%3CmxCell%20id%3D%222%22%20value%3D%22Header%22%20style%3D%22swimlane%3BwhiteSpace%3Dwrap%3Bhtml%3D1%3B%22%20vertex%3D%221%22%20parent%3D%221%22%3E%3CmxGeometry%20x%3D%22440%22%20y%3D%22100%22%20width%3D%22200%22%20height%3D%22200%22%20as%3D%22geometry%22%2F%3E%3C%2FmxCell%3E%3C%2Froot%3E%3C%2FmxGraphModel%3E&lt;/span&gt;" style="swimlane;whiteSpace=wrap;html=1;" vertex="1" parent="1">
          <mxGeometry x="440" y="290" width="370" height="150" as="geometry" />
        </mxCell>
        <mxCell id="WcwEFJO0mhPjMKhJfkhV-9" value="Model" style="rounded=0;whiteSpace=wrap;html=1;" vertex="1" parent="WcwEFJO0mhPjMKhJfkhV-6">
          <mxGeometry x="20" y="70" width="120" height="60" as="geometry" />
        </mxCell>
        <mxCell id="WcwEFJO0mhPjMKhJfkhV-7" value="Footer" style="swimlane;whiteSpace=wrap;html=1;" vertex="1" parent="1">
          <mxGeometry x="440" y="490" width="370" height="140" as="geometry" />
        </mxCell>
      </root>
    </mxGraphModel>
  </diagram>
</mxfile>
